<?xml version="1.0" encoding="utf-8"?>
<!-- Generator: Adobe Illustrator 16.0.0, SVG Export Plug-In . SVG Version: 6.00 Build 0)  -->
<!DOCTYPE svg PUBLIC "-//W3C//DTD SVG 1.1//EN" "http://www.w3.org/Graphics/SVG/1.1/DTD/svg11.dtd">
<svg version="1.1" id="Layer_1" xmlns="http://www.w3.org/2000/svg" xmlns:xlink="http://www.w3.org/1999/xlink" x="0px" y="0px"
	 width="64px" height="64px" viewBox="0 0 64 64" enable-background="new 0 0 64 64" xml:space="preserve">
<g>
	<path fill="#010101" d="M24.348,17.774c0,1.064,0.861,1.927,1.926,1.927v-3.853C25.209,15.849,24.348,16.711,24.348,17.774z"/>
	<path fill="#010101" d="M39.652,17.774c0-1.063-0.861-1.926-1.926-1.926v3.853C38.791,19.702,39.652,18.839,39.652,17.774z"/>
	<path fill="#010101" d="M54.625,5.292H9.375c-1.379,0-2.5,1.121-2.5,2.5v48.416c0,1.379,1.121,2.5,2.5,2.5h45.25
		c1.379,0,2.5-1.121,2.5-2.5V7.792C57.125,6.413,56.004,5.292,54.625,5.292z M24.348,54.233c0,0.552-0.448,1-1,1h-8.96
		c-0.553,0-1-0.448-1-1v-4c0-0.552,0.447-1,1-1h8.96c0.552,0,1,0.448,1,1V54.233z M46.5,48.375h-3.25v-1h3.25V48.375z M51.25,48.375
		H48v-1h3.25V48.375z M54.125,45.895H9.875V15.477h17.096v11.223h3.404v2.038c0,0.293,0.083,0.564,0.217,0.802
		c-0.039,0.269-0.067,0.548-0.067,0.843c0,1.653,1.496,2.993,1.496,2.993s1.496-1.34,1.496-2.993c0-0.296-0.028-0.576-0.068-0.846
		c0.134-0.238,0.216-0.508,0.216-0.8v-2.038h3.406V15.477h17.055V45.895z M54.125,13.942H37.07v-2.825h-10.1v2.825H9.875v-5.65
		h44.25V13.942z"/>
</g>
</svg>
