<?xml version="1.0" encoding="utf-8"?>
<!-- Generator: Adobe Illustrator 16.0.0, SVG Export Plug-In . SVG Version: 6.00 Build 0)  -->
<!DOCTYPE svg PUBLIC "-//W3C//DTD SVG 1.1//EN" "http://www.w3.org/Graphics/SVG/1.1/DTD/svg11.dtd">
<svg version="1.1" id="Layer_1" xmlns="http://www.w3.org/2000/svg" xmlns:xlink="http://www.w3.org/1999/xlink" x="0px" y="0px"
	 width="64px" height="64px" viewBox="0 0 64 64" enable-background="new 0 0 64 64" xml:space="preserve">
<g>
	<path d="M40.151,9.5h-21.9c-1.103,0-2,0.897-2,2v41c0,1.103,0.897,2,2,2h27.498c1.103,0,2-0.897,2-2V16.999L40.151,9.5z
		 M40.741,12.892l3.571,3.525h-3.571V12.892z M18.251,52.5v-41h20.49v4.917c0,1.103,0.897,2,2,2h5.008L45.75,52.5H18.251z"/>
	<path d="M23.769,31.228l0.061,0.116l-0.071-0.015v11.263l9.321,2.201l7.162-3.941V29.407l-9.555-1.84L23.769,31.228z
		 M32.611,44.123l-8.358-1.924V31.942l8.358,1.797V44.123z M39.405,29.854l-6.351,3.478l-8.623-1.859l6.334-3.351L39.405,29.854z"/>
	<path d="M26.038,17.132c0.462-0.418,0.757-1.066,0.757-1.93c0-0.829-0.289-1.406-0.757-1.787c-0.446-0.375-1.073-0.563-1.98-0.563
		l-1.412,0.012v0.691l1.49-0.011c1.11,0,1.729,0.612,1.722,1.686c0,1.232-0.685,1.866-1.837,1.859c-0.18,0-0.367,0-0.49-0.021
		v-2.697h-0.885v3.359c0.288,0.036,0.676,0.065,1.195,0.065C24.785,17.795,25.555,17.572,26.038,17.132z"/>
	<path d="M21.368,15.148v-0.015c0.596-0.209,0.894-0.626,0.894-1.133c0-0.634-0.514-1.185-1.513-1.185
		c-0.581,0-1.118,0.179-1.394,0.373l0.209,0.663c0.201-0.134,0.596-0.306,0.99-0.306c0.529,0,0.776,0.276,0.776,0.604
		c0,0.484-0.537,0.678-0.962,0.678H19.96v0.671h0.424c0.558,0,1.095,0.246,1.095,0.819c0.009,0.38-0.275,0.775-0.976,0.775
		c-0.462,0-0.917-0.187-1.103-0.298l-0.209,0.694c0.261,0.171,0.769,0.334,1.357,0.334c1.2,0,1.885-0.647,1.885-1.468
		C22.434,15.7,21.957,15.252,21.368,15.148z"/>
</g>
</svg>
